#tb 0: 1/1
#media_type 0: video
#codec_id 0: fits
#dimensions 0: 72x36
#sar 0: 0/1
0,          0,          0,        1,     5760, 0x693aa359
0,          1,          1,        1,     5760, 0x753c6498
0,          2,          2,        1,     5760, 0x730364f3
0,          3,          3,        1,     5760, 0xf179d007
0,          4,          4,        1,     5760, 0xcfe9963d
